<svg width="22" height="14" viewBox="0 0 22 14" fill="none" xmlns="http://www.w3.org/2000/svg">
<path d="M21.5 6.75V12.75C21.5 12.9489 21.421 13.1397 21.2803 13.2803C21.1397 13.421 20.9489 13.5 20.75 13.5H14.75C14.5511 13.5 14.3603 13.421 14.2197 13.2803C14.079 13.1397 14 12.9489 14 12.75C14 12.5511 14.079 12.3603 14.2197 12.2197C14.3603 12.079 14.5511 12 14.75 12H18.9397L11.75 4.81032L8.53061 8.03063C8.46096 8.10036 8.37824 8.15568 8.2872 8.19343C8.19615 8.23117 8.09855 8.25059 7.99999 8.25059C7.90143 8.25059 7.80383 8.23117 7.71278 8.19343C7.62174 8.15568 7.53902 8.10036 7.46936 8.03063L0.719365 1.28063C0.578634 1.1399 0.499573 0.949028 0.499573 0.750005C0.499573 0.550982 0.578634 0.36011 0.719365 0.21938C0.860095 0.0786492 1.05097 -0.000411985 1.24999 -0.000411987C1.44901 -0.000411989 1.63988 0.0786492 1.78061 0.21938L7.99999 6.43969L11.2194 3.21938C11.289 3.14965 11.3717 3.09433 11.4628 3.05659C11.5538 3.01884 11.6514 2.99941 11.75 2.99941C11.8486 2.99941 11.9461 3.01884 12.0372 3.05659C12.1282 3.09433 12.211 3.14965 12.2806 3.21938L20 10.9397V6.75C20 6.55109 20.079 6.36033 20.2197 6.21967C20.3603 6.07902 20.5511 6 20.75 6C20.9489 6 21.1397 6.07902 21.2803 6.21967C21.421 6.36033 21.5 6.55109 21.5 6.75Z" fill="#F04438"/>
</svg>
