<svg width="22" height="14" viewBox="0 0 22 14" fill="none" xmlns="http://www.w3.org/2000/svg">
<path d="M21.5 1.25V7.25C21.5 7.44891 21.421 7.63968 21.2803 7.78033C21.1397 7.92098 20.9489 8 20.75 8C20.5511 8 20.3603 7.92098 20.2197 7.78033C20.079 7.63968 20 7.44891 20 7.25V3.06031L12.2806 10.7806C12.211 10.8504 12.1283 10.9057 12.0372 10.9434C11.9462 10.9812 11.8486 11.0006 11.75 11.0006C11.6514 11.0006 11.5538 10.9812 11.4628 10.9434C11.3717 10.9057 11.289 10.8504 11.2194 10.7806L8 7.56031L1.78062 13.7806C1.63989 13.9214 1.44902 14.0004 1.25 14.0004C1.05097 14.0004 0.860103 13.9214 0.719372 13.7806C0.578642 13.6399 0.49958 13.449 0.49958 13.25C0.49958 13.051 0.578642 12.8601 0.719372 12.7194L7.46937 5.96937C7.53903 5.89964 7.62174 5.84432 7.71279 5.80658C7.80384 5.76884 7.90144 5.74941 8 5.74941C8.09856 5.74941 8.19615 5.76884 8.2872 5.80658C8.37825 5.84432 8.46097 5.89964 8.53062 5.96937L11.75 9.18969L18.9397 2H14.75C14.5511 2 14.3603 1.92098 14.2197 1.78033C14.079 1.63968 14 1.44891 14 1.25C14 1.05109 14.079 0.860322 14.2197 0.71967C14.3603 0.579018 14.5511 0.5 14.75 0.5H20.75C20.9489 0.5 21.1397 0.579018 21.2803 0.71967C21.421 0.860322 21.5 1.05109 21.5 1.25Z" fill="#15B79F"/>
</svg>
